<svg xmlns="http://www.w3.org/2000/svg" viewBox="0 0 32 32">
  <path fill="#41d1ff" d="M18.6 2.2 26 2.2 23.6 7.6 18.6 2.2ZM9.4 2.2 9.4 2.2 2.1 2.2 9.4 9.4 9.4 2.2ZM15.8 2.2 15.8 2.2 11.7 2.2 15.8 6.3 15.8 2.2ZM26 2.2 26 2.2 23.6 7.6 26 2.2Z"/>
  <path fill="#bd34fe" d="M9.4 2.2 16.5 9.4 23.6 2.2 9.4 2.2Z"/>
  <path fill="#41d1ff" d="M9.4 2.2 2.2 9.4 2.2 9.4 9.4 2.2Z"/>
  <path fill="#bd34fe" d="M16.5 9.4 16.5 9.4 9.4 2.2 9.4 9.4 16.5 9.4Z"/>
  <path fill="#bd34fe" d="M23.6 2.2 16.5 9.4 23.6 9.4 23.6 2.2Z"/>
  <path fill="#bd34fe" d="M2.2 16.5 2.2 16.5 9.4 23.6 9.4 16.5 2.2 16.5Z"/>
  <path fill="#41d1ff" d="M9.4 9.4 2.2 16.5 2.2 16.5 9.4 9.4Z"/>
  <path fill="#bd34fe" d="M16.5 16.5 16.5 16.5 9.4 9.4 9.4 16.5 16.5 16.5Z"/>
  <path fill="#bd34fe" d="M23.6 9.4 16.5 16.5 23.6 16.5 23.6 9.4Z"/>
  <path fill="#41d1ff" d="M2.2 23.6 2.2 23.6 9.4 30.8 9.4 23.6 2.2 23.6Z"/>
  <path fill="#bd34fe" d="M9.4 16.5 2.2 23.6 2.2 23.6 9.4 16.5Z"/>
  <path fill="#bd34fe" d="M16.5 23.6 16.5 23.6 9.4 16.5 9.4 23.6 16.5 23.6Z"/>
  <path fill="#bd34fe" d="M23.6 16.5 16.5 23.6 23.6 23.6 23.6 16.5Z"/>
  <path fill="#41d1ff" d="M9.4 30.8 16.5 23.6 23.6 30.8 9.4 30.8Z"/>
  <path fill="#bd34fe" d="M16.5 23.6 16.5 23.6 23.6 16.5 16.5 16.5 16.5 23.6Z"/>
  <path fill="#bd34fe" d="M23.6 23.6 23.6 23.6 23.6 16.5 16.5 23.6 23.6 23.6Z"/>
  <path fill="#bd34fe" d="M9.4 30.8 9.4 30.8 16.5 23.6 9.4 23.6 9.4 30.8Z"/>
  <path fill="#bd34fe" d="M23.6 30.8 23.6 30.8 16.5 23.6 23.6 23.6 23.6 30.8Z"/>
</svg>
